<svg width="256" height="256" viewBox="0 0 256 256" fill="none" xmlns="http://www.w3.org/2000/svg">
  <rect width="256" height="256" rx="60" fill="#242938"/>
  <g transform="translate(-57.6, -122.56) scale(0.58)">
    <path fill="#FEFEFE" d="M361.9,585.2c6.9-1.1,13.5-3,19.7-6.2c2.8-1,5.7-1.7,8.4-3c17.4-8.1,29.7-21.9,40.5-37.2c2.5-3.6,4.9-7.2,7.5-11c1.4,2.6,2.5,4.6,3.6,6.6c5,8.5,12.7,11.3,22,10.2c7.4-0.9,12-6.1,16.5-11.7c18.7-23.3,34.5-48.1,43.7-76.8c5.1-15.8,6.6-31.7,1.2-47.8c-6.4-19.3-14.2-38.1-23.8-56c-11.8-22-26.1-42.3-47.1-56.9c-10.3-7.2-21.4-12.7-34-13.7c-6.1-0.4-11-2.1-16.1-5.2c-31.5-18.7-65.2-28.3-102.2-25.3c-19.5,1.6-37.9,6.6-55.9,14.1c-8.3,3.4-15.4,9.1-24.7,10.9c-24.7,4.8-43.2,20.2-59.2,38.6c-24.6,28.1-40.5,61.4-54,95.9c-4.3,10.9-4.7,22.2-2.8,33.7c2.6,15.9,8.6,30.4,16.2,44.4c10.3,18.9,22.1,36.7,36.8,52.3c10.2,10.8,25.3,8.4,33.2-4.2c1.6-2.6,3-5.3,4.7-8.6c6.1,9.3,12.5,17.6,19.9,25.3c10.6,11,22.5,19.9,37.4,24.5c6.1,2.9,12.6,4.8,19.2,6c0.5,1.6,0.9,3.1,1.4,4.7c4.2,13.4,10.7,24.8,25.6,28.7c11.2,2.9,22.4,4,33.8,2c8.2-1.5,15-5.3,19.5-12.9C357.1,599.7,358.8,592.1,361.9,585.2z"/>
    <path fill="#F3AA43" d="M381.7,578.9c-6.2,3.2-12.8,5.1-19.7,6.2c2.6-13.2,3.8-26.6,2.6-40.1c-0.2-2.3,1.5-2.7,2.9-3.4c9.2-4.5,17.3-10.6,24-18.4c9.1-10.7,13.4-23.2,12-37.3c-0.5-5.3-3.9-8.5-8.3-8c-4.2,0.5-6.5,3.8-6.4,9c0.1,2.8,0.1,5.7-0.2,8.4c-1.8,13.8-16.9,30.8-30.4,34c-4.2,1-8.5,1.7-12.5-0.8c-11.4-7.2-23.5-13.9-19.5-30.8c0.1-0.5,0-1,0-1.5c-0.2-5-2.8-7.7-7.2-7.7c-4.4,0-7.1,2.8-7.2,7.7c-0.1,4.8-0.1,9.6,0,14.5c0.1,2.2-0.6,3.8-2.4,5.1c-4.6,3.5-9.1,7.2-13.8,10.7c-5,3.8-10.6,5.2-16.4,2.7c-14.4-6.2-32.1-19.8-30.2-42.3c0.5-5.7-2.2-8.8-6.8-9.1c-4.2-0.2-7.1,2.7-7.7,8.1c-0.6,5.5-0.3,10.9,1.1,16.3c4.2,16.6,15.2,27.7,29.3,36.1c3.3,2,4.5,3.9,4.3,7.8c-0.5,12.6,0.8,25.2,3.4,37.6c-6.7-1.2-13.1-3.1-19.2-6c4-0.1,6.7-1.9,7.4-5.9c0.8-4.4-1.8-6.9-5.5-8.4c-6.5-2.6-12.7-5.8-18.1-10.2c-12.7-10.2-22.6-22.8-31.2-36.6c-2-3.2-2.1-5.9-0.2-9.2c3.7-6.3,4.2-13.1,2.4-20.2c-1.8-6.9-3.4-13.9-4.5-20.9c-4.5-28-7.3-56,3.5-83.4c1.7-4.3-0.3-8.7-3.9-10c-4-1.4-8.2,0.6-10,5.1c-5,12.4-7.4,25.5-8.1,38.8c-1.2,24.9,2.3,49.3,8.3,73.4c0.7,2.9,1.3,5.8-0.1,8.7c-4.5,9.6-8.9,19.3-13.7,28.8c-3.2,6.4-9,6.8-13.5,1.3c-3.1-3.7-6-7.5-8.9-11.4c-14.6-19.5-28.1-39.5-35.3-63.1c-4-13.1-5.7-26.3-0.5-39.5c8.7-22.1,18.6-43.6,31.1-63.9c11-18,24.5-33.9,41.2-46.9c10-7.7,21-13.3,33.7-14.9c3.1-0.4,5.7-1.2,8.3-2.7c33.8-20.3,70.2-26,108.7-18.6c21.3,4.1,40.7,12.9,58.8,24.7c2.9,1.9,5.8,2.8,9.4,2.6c5.7-0.4,11.3,1,16.5,3c18.3,7.3,32.1,20.3,43.6,35.9c16.4,22.3,26.8,47.5,36.5,73.2c5.8,15.3,5.3,30.2,0.3,45.2c-9.3,27.9-25.6,51.6-43.8,74.1c-4.3,5.3-9.9,4.4-13.1-1.9c-4.7-9.4-9-18.9-13.5-28.3c-1.1-2.4-1.3-4.8-0.6-7.3c5.1-19.6,8.3-39.5,8.9-59.9c0.5-18-0.8-35.8-7.8-52.7c-2.4-5.8-5.6-8-10-6.4c-4.5,1.7-5.8,5.3-3.7,11.1c2.3,6.4,4.4,12.9,5.4,19.6c4,26.9,0.8,53.3-5.7,79.4c-2.4,9.6-2.7,18.6,2.5,27.3c1,1.7,1.8,3.6,0.6,5.6c-12.1,20.8-25.1,40.9-48.7,50.7c-3.6,1.5-6.4,3.5-5.9,8.1C375.2,576.7,377.8,578.3,381.7,578.9z M309,481.9c7.3,1.3,14.7,1,22,0.9c4.9,1.7,9.5,0.9,13.9-1.5c4.5-2.4,9.1-4.7,13.6-7.2c5-2.8,6.1-5.9,4-11.1c-2.1-5.4-4.7-10.6-6.7-16c-3.1-8.3-9-11.7-17.6-11.6c-13.4,0.2-26.9-0.2-40.3,0c-6.4,0.1-11.8,2.6-14.4,8.7c-3.1,7.3-5.7,14.8-8.4,22.3c-1.1,3.1-0.5,6.6,2.4,7.9C287.4,478.4,296.8,486.2,309,481.9z M390,370.6c-8.8,0.1-12.9,5.7-12.8,17.5c0.1,5.4,7.8,10.6,15.8,10.7c5.9,0.1,11.7-6.8,11.6-13.8C404.6,377.1,397.8,370.5,390,370.6z M270.7,387.4c-0.2-11.4-4.4-16.9-12.9-16.9c-8.1,0-14.8,6.9-14.5,15c0.2,6.9,5.9,13.3,11.7,13.2C263.6,398.5,270.8,393.3,270.7,387.4z"/>
    <path fill="#110D07" d="M381.7,578.9c-3.8-0.6-6.5-2.2-6.9-6.5c-0.5-4.6,2.2-6.5,5.9-8.1c23.6-9.8,36.5-29.9,48.7-50.7c1.2-2.1,0.4-3.9-0.6-5.6c-5.3-8.7-4.9-17.6-2.5-27.3c6.5-26.1,9.7-52.5,5.7-79.4c-1-6.8-3.1-13.2-5.4-19.6c-2.1-5.8-0.8-9.4,3.7-11.1c4.3-1.6,7.6,0.6,10,6.4c7,16.9,8.3,34.7,7.8,52.7c-0.5,20.3-3.8,40.2-8.9,59.9c-0.6,2.5-0.5,4.9,0.6,7.3c4.5,9.4,8.9,18.9,13.5,28.3c3.1,6.3,8.8,7.1,13.1,1.9c18.3-22.5,34.6-46.3,43.8-74.1c5-15.1,5.5-29.9-0.3-45.2c-9.7-25.7-20.1-50.9-36.5-73.2c-11.5-15.6-25.3-28.6-43.6-35.9c-5.3-2.1-10.8-3.4-16.5-3c-3.5,0.2-6.5-0.7-9.4-2.6c-18.1-11.8-37.5-20.6-58.8-24.7c-38.5-7.4-74.9-1.7-108.7,18.6c-2.6,1.6-5.3,2.4-8.3,2.7c-12.7,1.6-23.8,7.2-33.7,14.9c-16.7,12.9-30.2,28.8-41.2,46.9c-12.4,20.3-22.3,41.8-31.1,63.9c-5.2,13.2-3.5,26.4,0.5,39.5c7.1,23.6,20.7,43.6,35.3,63.1c2.9,3.9,5.8,7.7,8.9,11.4c4.5,5.5,10.3,5.1,13.5-1.3c4.7-9.5,9.1-19.2,13.7-28.8c1.4-2.9,0.8-5.8,0.1-8.7c-6-24.1-9.5-48.5-8.3-73.4c0.6-13.3,3.1-26.3,8.1-38.8c1.8-4.5,6-6.5,10-5.1c3.6,1.3,5.6,5.7,3.9,10c-10.8,27.4-8,55.4-3.5,83.4c1.1,7,2.7,14,4.5,20.9c1.8,7.1,1.3,13.9-2.4,20.2c-1.9,3.3-1.8,5.9,0.2,9.2c8.5,13.8,18.4,26.4,31.2,36.6c5.5,4.4,11.6,7.6,18.1,10.2c3.7,1.5,6.2,4,5.5,8.4c-0.7,4-3.4,5.8-7.4,5.9c-14.8-4.5-26.8-13.5-37.4-24.5c-7.3-7.6-13.8-16-19.9-25.3c-1.8,3.2-3.1,6-4.7,8.6c-7.9,12.7-23,15.1-33.2,4.2c-14.7-15.6-26.6-33.4-36.8-52.3c-7.6-14-13.6-28.6-16.2-44.4c-1.9-11.5-1.4-22.8,2.8-33.7c13.5-34.5,29.4-67.7,54-95.9c16-18.3,34.5-33.7,59.2-38.6c9.3-1.8,16.4-7.4,24.7-10.9c18-7.5,36.3-12.5,55.9-14.1c37-3,70.7,6.6,102.2,25.3c5.1,3,10,4.7,16.1,5.2c12.6,0.9,23.7,6.5,34,13.7c21,14.6,35.2,34.8,47.1,56.9c9.6,17.9,17.4,36.7,23.8,56c5.4,16.1,3.8,32-1.2,47.8c-9.2,28.6-25,53.5-43.7,76.8c-4.5,5.6-9.1,10.8-16.5,11.7c-9.2,1.1-17-1.8-22-10.2c-1.2-2-2.2-4-3.6-6.6c-2.6,3.8-5,7.5-7.5,11c-10.9,15.3-23.1,29.1-40.5,37.2C387.3,577.2,384.4,577.9,381.7,578.9z"/>
    <path fill="#120B04" d="M272.7,583.9c-2.6-12.4-3.9-24.9-3.4-37.6c0.1-3.9-1-5.8-4.3-7.8c-14.1-8.5-25.1-19.6-29.3-36.1c-1.4-5.4-1.7-10.8-1.1-16.3c0.6-5.4,3.5-8.3,7.7-8.1c4.6,0.2,7.3,3.4,6.8,9.1c-1.9,22.6,15.9,36.2,30.2,42.3c5.8,2.5,11.4,1.1,16.4-2.7c4.6-3.5,9.1-7.2,13.8-10.7c1.8-1.3,2.4-2.9,2.4-5.1c-0.1-4.8-0.1-9.6,0-14.5c0.1-5,2.8-7.7,7.2-7.7c4.4,0,7,2.8,7.2,7.7c0,0.5,0.1,1,0,1.5c-4,16.9,8.1,23.7,19.5,30.8c4,2.5,8.3,1.8,12.5,0.8c13.4-3.2,28.6-20.3,30.4-34c0.4-2.8,0.3-5.6,0.2-8.4c-0.1-5.2,2.2-8.6,6.4-9c4.4-0.5,7.8,2.7,8.3,8c1.3,14.1-2.9,26.6-12,37.3c-6.6,7.8-14.7,13.8-24,18.4c-1.4,0.7-3.2,1-2.9,3.4c1.2,13.5,0,26.8-2.6,40.1c-3.2,7-4.9,14.6-8.8,21.3c-4.5,7.6-11.3,11.4-19.5,12.9c-11.4,2.1-22.6,1-33.8-2c-15-3.9-21.4-15.3-25.6-28.7C273.7,587,273.2,585.5,272.7,583.9z M349.9,558.8c0-3.6,0-7.3,0-10.9c0-1.3,0.1-2.8-1.7-3c-10.1-1.3-17.4-7.9-24.6-14.1c-3.6-3.1-5.8-2.7-9.2,0.1c-8.2,6.9-16.3,14.3-28.2,14.2c-1.8,0-2.1,1.1-2.2,2.6c-0.1,14.8,0.8,29.5,6.3,43.5c2,5,4.8,9.6,10.4,11.4c9.6,3.1,19.4,4,29.4,2.9c5.5-0.6,9.4-3.4,11.8-8.6C347.7,584.7,350.1,572,349.9,558.8z"/>
    <path fill="#100B03" d="M309,481.9c-12.2,4.3-21.6-3.5-31.7-7.8c-2.9-1.2-3.5-4.7-2.4-7.9c2.7-7.5,5.3-15,8.4-22.3c2.6-6.1,8.1-8.7,14.4-8.7c13.4-0.2,26.9,0.2,40.3,0c8.7-0.1,14.5,3.3,17.6,11.6c2,5.4,4.6,10.6,6.7,16c2.1,5.3,1,8.4-4,11.1c-4.5,2.5-9.1,4.8-13.6,7.2c-4.4,2.4-9,3.1-13.9,1.5c-2.4-1.8-4.8-3.6-6.5-6.1c-2.7-3.9-2.2-10.4,1-12.7c3.3-2.4,7.6-1.3,11,2.9c0.6,0.8,0.9,1.4,2.3,1.1c6.2-1.5,8-4.6,5.6-10.3c-0.5-1.2-1.4-2.3-1.7-3.6c-0.8-3.7-3.3-4.3-6.6-4.2c-9.9,0.2-19.9,0-29.9,0.1c-11.5,0.1-8.4-1.7-13,9.4c-0.8,2-2.6,4.9,0.6,6c2.9,1.1,6.1,5.1,9.4,0.1c2.4-3.5,6-3.4,9.2-1.3c3.3,2.1,4.4,5.1,3,9C314.1,476.8,311.4,479.2,309,481.9z"/>
    <path fill="#40403F" d="M309,481.9c2.4-2.7,5-5.1,6.3-8.7c1.4-3.9,0.3-7-3-9c-3.3-2.1-6.9-2.2-9.2,1.3c-3.3,5-6.5,1-9.4-0.1c-3.3-1.1-1.4-4-0.6-6c4.6-11,1.6-9.3,13-9.4c10-0.1,19.9,0.1,29.9-0.1c3.4-0.1,5.8,0.5,6.6,4.2c0.3,1.3,1.1,2.4,1.7,3.6c2.4,5.7,0.6,8.8-5.6,10.3c-1.3,0.3-1.6-0.3-2.3-1.1c-3.4-4.3-7.7-5.4-11-2.9c-3.1,2.3-3.7,8.9-1,12.7c1.7,2.5,4.1,4.3,6.5,6.1C323.7,482.9,316.3,483.2,309,481.9z"/>
    <path fill="#140D02" d="M390,370.6c7.8-0.1,14.7,6.6,14.7,14.4c0.1,7-5.8,13.9-11.6,13.8c-8.1-0.1-15.8-5.3-15.8-10.7C377.1,376.3,381.2,370.7,390,370.6z"/>
    <path fill="#110B02" d="M270.7,387.4c0.1,5.9-7.2,11.1-15.8,11.3c-5.8,0.1-11.5-6.3-11.7-13.2c-0.3-8.1,6.4-15,14.5-15C266.4,370.5,270.6,376,270.7,387.4z"/>
    <path fill="#E95B47" d="M349.9,558.8c0.1,13.2-2.3,26-8,38c-2.4,5.2-6.3,8-11.8,8.6c-10,1.1-19.9,0.2-29.4-2.9c-5.6-1.8-8.4-6.4-10.4-11.4c-5.5-14-6.4-28.7-6.3-43.5c0-1.5,0.3-2.6,2.2-2.6c11.8,0.1,19.9-7.3,28.2-14.2c3.4-2.8,5.7-3.2,9.2-0.1c7.2,6.3,14.5,12.8,24.6,14.1c1.9,0.3,1.7,1.7,1.7,3C350,551.5,349.9,555.1,349.9,558.8z"/>
  </g>
</svg>
