<svg width="256" height="256" viewBox="0 0 256 256" fill="none" xmlns="http://www.w3.org/2000/svg">
  <rect width="256" height="256" rx="60" fill="#F4F2ED"/>
  <g transform="translate(17.75, -2.2) scale(0.35)">
    <path fill="#45AF58" d="M507.4,655.9c-126.9,0-253.9,0-380.8,0c-0.9-1.6-2.6-1.3-3.9-1.8c-17.7-5.8-29-20.9-29-39.3c-0.1-143.2-0.1-286.4,0-429.5c0-19.4,12.6-35.2,31.4-40.1c0.9-0.2,2.1,0.1,2.6-1.1c87.3,0,174.6,0,261.9,0c47.6,50.8,95.2,101.6,142.7,152.5c3.1,3.4,6.9,6.3,9,10.5c-35.1,0-70.2,0-105.4,0c-3.7,0-7.3-0.5-10.9-1.3c-6-1.3-11.3-4.1-17.3-7.9c0.5,1.7,0.5,2.3,0.8,2.6c10.3,7.5,21.1,14.4,34.3,14.6c32.8,0.3,65.6,0.1,98.4,0.1c0.1,20.1,0.1,40.3,0.2,60.4c0,79.4,0,158.9,0,238.3c0,18.3-10.3,33.4-26.6,39.6C512.3,654.3,509.5,654.1,507.4,655.9z M311.9,575.1c5.9,0.1,13.3-1.1,20-4.8c8.9-5,13.4-12.8,13.5-22.9c0.2-10.1-4.5-17.5-13.2-22.4c-5-2.8-10.3-4.5-15.8-6.2c-6.7-2-13.5-3.5-19.9-6.6c-4.4-2.2-7.9-5.3-7.9-10.6c0-5.2,2.6-9.2,7-11.9c4.6-2.8,9.6-3.5,14.9-3.2c8.2,0.5,15.5,3.4,22.2,8.2c3,2.2,6.1,2,8.4-1.1c2.2-2.9,1.3-5.6-1.4-7.9c-11.9-10.4-35.8-12.9-49.6-5.1c-8.8,5-13.8,12.5-13.5,22.8c0.3,10.1,6,16.6,14.9,20.6c5.8,2.6,11.9,4.3,18,6c5.6,1.6,11.3,3,16.3,6c9.3,5.5,10.2,16.9,1.8,23.8c-2.8,2.3-6,3.6-9.5,4.2c-12.4,2.3-23.4-1.1-33.2-8.8c-2.9-2.3-5.7-3.8-8.6-0.3c-2.3,2.8-1.5,6.8,1.8,9.5C287.5,572,298.3,575.1,311.9,575.1z M174.4,525.7c0.1,31,24.6,52.8,55.5,49.1c9.7-1.2,18.2-5.1,25-12.3c2.6-2.7,3.9-5.7,1-8.8c-2.9-3-6-2.1-8.7,0.5c-0.5,0.5-0.9,0.9-1.4,1.4c-9.4,8.5-20.2,11.1-32.4,7.4c-17.8-5.4-28.3-22.8-25.7-43.8c1.8-14.6,9.4-25.6,23.6-30.7c13.5-4.8,25.6-1.9,35.7,8.2c2.9,2.9,5.9,3.3,8.7,0.6c3-2.9,1.9-6-0.7-8.7c-4.2-4.4-9.1-7.7-14.8-9.9C212.9,468.8,174.3,484.7,174.4,525.7z M403,560.5c-1-2.4-1.6-3.8-2.1-5.2c-9.2-23.5-18.3-47.1-27.5-70.6c-0.6-1.5-1.1-3.2-1.9-4.6c-1.8-3.3-4.8-4.2-8.1-2.6c-3,1.5-4.2,4.1-3.1,7.5c0.6,1.7,1.4,3.4,2.1,5.1c10.1,25.5,20.3,50.9,30.4,76.4c1.9,4.8,5.1,7.6,10.5,7.7c4.8,0.1,7.7-2.4,9.5-6.7c11.1-27.2,22.2-54.5,33.4-81.7c1.7-4.1,0.2-7-3.5-8.5c-3.8-1.5-6.8-0.2-8.5,3.7c-0.3,0.8-0.6,1.5-0.9,2.3c-3.6,9.3-7.2,18.6-10.9,27.9C416,527.4,409.7,543.5,403,560.5z M392.5,273.4c0,4.5,0.8,8.6,4.4,11.5C395.4,281.1,394,277.3,392.5,273.4z M398.7,288c-0.1-0.1-0.2-0.2-0.3-0.3c-0.1,0.2-0.2,0.4-0.3,0.6c0.1,0,0.3,0.1,0.4,0C398.6,288.3,398.7,288.1,398.7,288z M400.1,290.9c0,0.1,0,0.3,0,0.4c0.2-0.1,0.4-0.1,0.6-0.2c-0.1-0.1-0.1-0.3-0.2-0.3C400.4,290.7,400.2,290.8,400.1,290.9z"/>
    <path fill="#FEFEFE" d="M311.9,575.1c-13.5,0-24.3-3.1-33.7-10.7c-3.3-2.7-4.1-6.7-1.8-9.5c2.9-3.5,5.7-1.9,8.6,0.3c9.8,7.7,20.7,11.1,33.2,8.8c3.5-0.6,6.7-2,9.5-4.2c8.4-6.8,7.5-18.3-1.8-23.8c-5.1-3-10.8-4.4-16.3-6c-6.1-1.7-12.2-3.3-18-6c-8.9-4.1-14.6-10.5-14.9-20.6c-0.3-10.3,4.6-17.8,13.5-22.8c13.8-7.8,37.7-5.3,49.6,5.1c2.6,2.3,3.5,5,1.4,7.9c-2.3,3-5.3,3.2-8.4,1.1c-6.6-4.8-14-7.7-22.2-8.2c-5.2-0.3-10.3,0.4-14.9,3.2c-4.4,2.7-7,6.7-7,11.9c0,5.3,3.5,8.4,7.9,10.6c6.3,3.1,13.2,4.5,19.9,6.6c5.4,1.6,10.8,3.4,15.8,6.2c8.8,4.9,13.4,12.3,13.2,22.4c-0.2,10.1-4.7,17.9-13.5,22.9C325.1,574,317.8,575.2,311.9,575.1z"/>
    <path fill="#FEFEFE" d="M174.4,525.7c-0.1-41,38.5-56.9,65.8-46.8c5.7,2.1,10.6,5.5,14.8,9.9c2.6,2.7,3.7,5.8,0.7,8.7c-2.8,2.7-5.8,2.3-8.7-0.6c-10.2-10.1-22.3-13-35.7-8.2c-14.3,5.1-21.8,16-23.6,30.7c-2.6,21,7.9,38.4,25.7,43.8c12.2,3.7,23,1.1,32.4-7.4c0.5-0.4,1-0.9,1.4-1.4c2.8-2.7,5.9-3.6,8.7-0.5c2.9,3.1,1.6,6.1-1,8.8c-6.9,7.1-15.3,11.1-25,12.3C199,578.5,174.4,556.7,174.4,525.7z"/>
    <path fill="#FEFEFE" d="M403,560.5c6.7-17,13-33.1,19.2-49.2c3.6-9.3,7.2-18.6,10.9-27.9c0.3-0.8,0.6-1.5,0.9-2.3c1.6-4,4.7-5.2,8.5-3.7c3.8,1.5,5.2,4.4,3.5,8.5c-11.1,27.2-22.3,54.4-33.4,81.7c-1.7,4.3-4.7,6.8-9.5,6.7c-5.4-0.1-8.6-2.9-10.5-7.7c-10.1-25.5-20.3-50.9-30.4-76.4c-0.7-1.7-1.5-3.3-2.1-5.1c-1.2-3.4,0-6,3.1-7.5c3.3-1.6,6.2-0.6,8.1,2.6c0.8,1.4,1.3,3,1.9,4.6c9.2,23.5,18.3,47.1,27.5,70.6C401.5,556.7,402.1,558.1,403,560.5z"/>
    <path fill="#349C42" d="M541.2,307.1c0,2.7,0,5.3,0,8c-32.8,0-65.6,0.2-98.4-0.1c-13.2-0.1-24-7-34.3-14.6c-0.3-0.2-0.3-0.9-0.8-2.6c6,3.8,11.3,6.6,17.3,7.9c3.6,0.8,7.2,1.3,10.9,1.3C470.9,307,506,307.1,541.2,307.1z"/>
    <path fill="#349C42" d="M392.5,273.4c1.5,3.8,3,7.7,4.4,11.5C393.2,282,392.5,277.9,392.5,273.4z"/>
    <path fill="#349C42" d="M398.7,288c-0.1,0.1-0.1,0.3-0.2,0.4c-0.1,0.1-0.3,0-0.4,0c0.1-0.2,0.2-0.4,0.3-0.6C398.5,287.8,398.6,287.9,398.7,288z"/>
    <path fill="#349C42" d="M400.1,290.9c0.1,0,0.3-0.1,0.4-0.1c0.1,0,0.2,0.2,0.2,0.3c-0.2,0.1-0.4,0.1-0.6,0.2C400.1,291.1,400.1,291,400.1,290.9z"/>
  </g>
</svg>
