<svg width="256" height="256" viewBox="0 0 256 256" fill="none" xmlns="http://www.w3.org/2000/svg">
  <rect width="256" height="256" rx="60" fill="#F4F2ED"/>
  <g transform="translate(23, -6.4) scale(0.35)">
    <path fill="#207547" d="M90.5,598c0-148.6,0-297.2,0-445.8c1.4,0.3,2.7-0.6,3.9-0.8c6-0.7,11.6-2.7,17.5-3.9c5.7-1.2,11.5-2.5,17.1-4c4.4-1.2,8.9-2.2,13.3-3.1c6.7-1.4,13.2-3.1,19.9-4.3c-0.1,1.3-0.4,2.6-0.4,3.9c0,46.9,0,93.8,0,140.7c0,1.4,0.3,2.4,1.4,3.2c-1.5,0.1-2.9,0.3-4.4,0.3c-1.5,0-1.9,0.4-1.3,1.9c3.9,12,7.7,24,11.5,36c5.6,17.5,11.2,35.1,16.8,52.6c0.4,1.2,0.3,2.2-0.1,3.4c-2.6,7.3-5.2,14.6-7.8,21.9c-5.7,16-11.4,32-17.1,48c-2.2,6.2-4.3,12.4-6.6,18.6c-0.6,1.6-0.1,1.7,1.3,1.8c2.1,0.1,4.3,0.3,6.4,0.5c0,47,0,93.9,0,140.9c0,1.3,0,2.7-0.4,3.9c-2.7-0.3-5.3-0.8-7.9-1.6c-4.5-1.3-9.2-1.9-13.8-3.2c-4.3-1.2-8.6-2.2-12.9-3c-6.4-1.2-12.6-3.2-19-4.2c-2.2-0.3-4.4-0.9-6.5-1.6C97.8,599.2,94,599.1,90.5,598z"/>
    <path fill="#1F7144" d="M162.3,136.2c0.2-0.5,0.6-0.3,0.9-0.4c0.9,0.8,1.9,1.7,2.2-0.5c2.7-0.7,5.5-1.3,8.2-2c6.3-1.5,12.5-3.2,18.8-4.4c4.1-0.8,8.2-1.7,12.2-2.6c6.3-1.5,12.7-2.8,19.1-4.4c5.1-1.3,10.2-2.5,15.3-3.3c1-0.2,1.6-1.1,2.6-0.9c-0.5,1.3-0.4,2.6-0.4,3.9c0,52,0,103.9,0,155.9c-4.6,0.3-9.1,0.7-13.7,0.9c-1.5,0.1-2.1,0.6-2.6,2c-4.3,13.8-8.7,27.5-12.9,41.4c-2.5,8.2-5.4,16.3-7.4,24.6c-0.3,1,0,2.2-0.9,3.2c-0.5-2-0.8-3.8-1.3-5.7c-5.5-19.8-11-39.6-16.5-59.4c-0.5-1.8-1.2-2.3-3-2.1c-6.6,0.7-13.2,0.4-19.8,1.6c-1.1-0.8-1.4-1.9-1.4-3.2c0-46.9,0-93.8,0-140.7C161.9,138.8,162.1,137.5,162.3,136.2z"/>
    <path fill="#1F7144" d="M241.2,632.5c-4.1-0.5-8-2.1-12-2.8c-6-0.9-11.7-2.9-17.7-4c-4.5-0.8-8.9-1.9-13.3-3c-7.1-1.7-14.2-3.4-21.4-5c-4.4-0.9-8.8-1.8-13.1-3.1c-0.2-0.7-0.8-0.8-1.4-0.8c-0.3,0-0.5-0.1-0.8-0.1c0.4-1.3,0.4-2.6,0.4-3.9c0-47,0-93.9,0-140.9c0.4,0,0.9,0,1.3,0c0.8,1.2,1.7,1.1,2.7,0.2c1-0.2,1.7,0.6,2.7,0.6c3.9,0.1,7.8,0.3,11.7,0.6c1.3,0.1,1.7-0.2,2.1-1.5c6.9-22.3,13.8-44.6,20.8-66.9c0.6,3.1,1.5,6.2,2.5,9.2c6,19.8,12,39.6,17.9,59.4c1,3.5,0.8,3.5,5.4,4c0.6,0.1,1.2,0,1.8,0.1c3.5,0.3,7,0.5,10.6,0.8c0,0.9,0,1.8,0,2.7C241.2,529.7,241.2,581.1,241.2,632.5z"/>
    <path fill="#FDFDFD" d="M163.2,469.1c-0.4,0-0.9,0-1.3,0c-2.1-0.2-4.3-0.4-6.4-0.5c-1.3,0-1.8-0.2-1.3-1.8c2.3-6.2,4.4-12.4,6.6-18.6c5.7-16,11.4-32,17.1-48c2.6-7.3,5.2-14.6,7.8-21.9c0.4-1.2,0.5-2.2,0.1-3.4c-5.6-17.5-11.2-35.1-16.8-52.6c-3.8-12-7.6-24-11.5-36c-0.5-1.6-0.2-1.9,1.3-1.9c1.5,0,2.9-0.2,4.4-0.3c6.5-1.1,13.2-0.9,19.8-1.6c1.8-0.2,2.5,0.3,3,2.1c5.4,19.8,11,39.6,16.5,59.4c0.5,1.8,0.9,3.7,1.3,5.7c0.8-1,0.6-2.2,0.9-3.2c2-8.3,4.9-16.4,7.4-24.6c4.2-13.8,8.6-27.6,12.9-41.4c0.4-1.4,1-1.9,2.6-2c4.6-0.2,9.1-0.6,13.7-0.9c0.7,0,1.5,0,2.2,0c1.8,0,3.7,0.4,5.4-0.8c2.3,0,4.6,0,6.9,0c0,0.2,0,0.4-0.1,0.6c-3.8,10.3-7.7,20.6-11.5,30.8c-8,21.5-15.6,43.2-23.1,64.9c-0.6,1.6-0.4,3,0.1,4.4c1.8,4.7,3.6,9.4,5.3,14.2c10.1,27.7,20.2,55.4,30.3,83.1c0.7,2,0.1,1.9-1.5,1.9c-4.7,0-9.3-1.6-14-1.2c-3.5-0.3-7-0.5-10.6-0.8c-0.6,0-1.2,0-1.8-0.1c-4.6-0.5-4.3-0.5-5.4-4c-5.9-19.8-11.9-39.6-17.9-59.4c-0.9-3.1-1.9-6.1-2.5-9.2c-6.9,22.3-13.9,44.6-20.8,66.9c-0.4,1.3-0.9,1.6-2.1,1.5c-3.9-0.3-7.8-0.5-11.7-0.6c-1,0-1.7-0.8-2.7-0.6C165,469,164.1,469.1,163.2,469.1z"/>
    <path fill="#1E6D42" d="M241.2,475.6c4.7-0.4,9.3,1.1,14,1.2c1.6,0,2.2,0.1,1.5-1.9c-10.2-27.7-20.2-55.4-30.3-83.1c-1.7-4.7-3.5-9.5-5.3-14.2c-0.6-1.5-0.7-2.9-0.1-4.4c7.5-21.7,15.1-43.4,23.1-64.9c3.8-10.3,7.7-20.6,11.5-30.8c0.1-0.2,0-0.4,0.1-0.6c-2.3,0-4.6,0-6.9,0c-1.8,0.1-3.8-0.7-5.4,0.8c-0.7,0-1.5,0-2.2,0c0-52,0-103.9,0-155.9c0-1.3,0-2.7,0.4-3.9c5.5-1.2,11.1-2.3,16.6-3.7c5.2-1.3,10.5-2.2,15.7-3.6c6.3-1.6,12.8-2.8,19.1-4.5c4.2-1.1,8.5-1.8,12.7-2.9c5.6-1.5,11.2-2.5,16.8-3.8c2.6-0.6,5.4-1,7.9-2.1c1.7-0.7,2.1-0.1,2,1.6c-0.1,13.5,0,27,0,40.5c0,3.8,0,7.7,0,11.5c0.8,2,0.5,4.1,0.4,6.1c-0.1,4.8,0.5,9.6-0.4,14.3c0,12.1,0,24.2,0,36.3c0,0.9-0.3,1.8,0.4,2.6c0,16.9,0,33.7,0,50.6c-0.7,0.7-0.4,1.5-0.4,2.3c0,4.6,0.1,9.2-0.1,13.7c-0.1,2.1,0.4,2.7,2.6,2.7c17.5-0.1,35,0,52.5-0.1c1.6,0,2.1,0.3,2.1,2c-0.1,15.4-0.1,30.9,0,46.3c0,2-0.4,2.6-2.6,2.6c-17.5-0.1-35,0-52.5-0.1c-1.6,0-2.2,0.3-2.1,2c0.1,5.1,0.1,10.2,0,15.3c0,1.8,0.4,2.3,2.3,2.3c17.6-0.1,35.1,0,52.7-0.1c1.8,0,2.2,0.5,2.2,2.2c-0.1,15.3-0.1,30.6,0,45.8c0,2.2-0.5,2.8-2.7,2.8c-17.3-0.1-34.6,0-51.8-0.1c-2.2,0-2.7,0.6-2.6,2.7c0.2,5.1,0,10.2,0.1,15.3c0,0.8-0.3,1.6,0.4,2.3c0,16.7,0,33.4,0,50.1c-0.7,6.7-0.7,13.4,0,20.1c0,15.6,0,31.1,0,46.7c0,1.4-0.1,2.8-0.4,4.2c0,12.4,0,24.7,0,37.1c0.1,1.1,0.4,2.2,0.4,3.3c0,5.6,0,11.3,0,16.9c-0.7,0.8-0.4,1.7-0.4,2.5c0,16.5,0,33,0,49.6c0,1.7-0.1,2.5-2.2,2c-6.1-1.6-12.2-3.1-18.4-4.4c-6.7-1.4-13.3-3.3-20-4.6c-3.8-0.7-7.5-1.7-11.3-2.5c-5.7-1.2-11.3-3-17.1-4.1c-5.9-1.1-11.5-3.1-17.5-3.9c-1.6-0.2-3.2-0.8-4.8-1.2c0-51.4,0-102.8,0-154.2C241.2,477.4,241.2,476.5,241.2,475.6z"/>
    <path fill="#217246" d="M332.5,171.3c0.9-4.7,0.3-9.5,0.4-14.3c0-2,0.4-4.1-0.4-6.1c1,0.5,2,0.3,3.1,0.3c53,0,106.1,0.2,159.1-0.2c12.5-0.1,18.3,7.7,20.5,16.8c0.6,2.6,0.8,5.2,0.8,7.9c0,133,0,266,0,399c0,6.8-1.5,13.1-5.8,18.5c-2.9,3.5-6.4,5.7-11,6c-0.8,0-1.6,0-2.4,0c-53.8,0-107.6,0-161.3,0c-0.8,0-1.6-0.1-2.4-0.1c0-5.6,0-11.3,0-16.9c0-1.1-0.3-2.2-0.4-3.3c0.9,0,1.8,0.1,2.6,0.1c54.7,0,109.4,0,164.2,0c3.2,0,2.8,0.4,2.8-2.8c0-134.1,0-268.2,0-402.3c0-2.8,0-2.8-2.8-2.8c-54.7,0-109.4,0-164.2,0C334.3,171.1,333.4,171.2,332.5,171.3z"/>
    <path fill="#FDFDFD" d="M332.5,171.3c0.9-0.1,1.8-0.2,2.6-0.2c54.7,0,109.4,0,164.2,0c2.8,0,2.8,0,2.8,2.8c0,134.1,0,268.2,0,402.3c0,3.2,0.4,2.8-2.8,2.8c-54.7,0-109.4,0-164.2,0c-0.9,0-1.8-0.1-2.6-0.1c0-12.4,0-24.7,0-37.1c0.9,0,1.8-0.1,2.7-0.1c17.4,0,34.8,0,52.2,0c1.6,0,2.3-0.3,2.3-2.1c-0.1-15.6-0.1-31.1,0-46.7c0-1.9-0.7-2.1-2.3-2.1c-13.3,0.1-26.6,0-39.8,0c-4.9,0-9.7,0.1-14.6,0.1c-0.7-6.7-0.7-13.4,0-20.1c0.1,0,0.3,0.1,0.4,0.1c18.2,0,36.5,0,54.7,0.1c1.6,0,1.5-0.8,1.5-1.9c0-15.5,0-31,0-46.5c0-1.6-0.5-1.9-2-1.9c-4.7,0.1-9.5,0-14.2,0c-13.5,0-27,0.1-40.5,0.1c-0.7-0.7-0.4-1.5-0.4-2.3c0-5.1,0.1-10.2-0.1-15.3c-0.1-2.1,0.4-2.7,2.6-2.7c17.3,0.1,34.6,0,51.8,0.1c2.3,0,2.8-0.6,2.7-2.8c-0.1-15.3-0.1-30.6,0-45.8c0-1.7-0.4-2.2-2.2-2.2c-17.6,0.1-35.1,0-52.7,0.1c-1.9,0-2.3-0.5-2.3-2.3c0.1-5.1,0.1-10.2,0-15.3c0-1.7,0.5-2,2.1-2c17.5,0.1,35,0,52.5,0.1c2.1,0,2.6-0.7,2.6-2.6c-0.1-15.4-0.1-30.9,0-46.3c0-1.7-0.5-2-2.1-2c-17.5,0.1-35,0,52.5,0.1c2.2,0,2.7-0.6,2.6-2.7c0.2-4.6,0-9.2,0.1-13.7c0-0.8-0.3-1.6,0.4-2.3c18.4,0,36.7,0,55.1,0.1c1.8,0,1.6-1,1.6-2.1c0-15.5,0-31,0-46.5c0-1.8-0.5-2.3-2.3-2.3c-16.5,0.1-32.9,0-49.4,0c-1.7,0-3.4,0.1-5.1,0.1c-0.7-0.8-0.4-1.7-0.4-2.6C332.5,195.5,332.5,183.4,332.5,171.3z M438,260.8c10.6,0,21.3,0,31.9,0c1.5,0,2-0.4,2-1.9c-0.1-15.6-0.1-31.2,0-46.7c0-1.8-0.6-2.2-2.3-2.2c-21.1,0-42.2,0.1-63.4,0c-1.9,0-2.3,0.5-2.3,2.3c0.1,15.4,0.1,30.7,0,46.1c0,1.9,0.3,2.5,2.4,2.5C416.9,260.7,427.4,260.8,438,260.8z M438,330.4c10.6,0,21.1,0,31.7,0c1.7,0,2.2-0.4,2.2-2.2c-0.1-15.5-0.1-31,0-46.5c0-1.7-0.4-2.3-2.2-2.2c-21.2,0.1-42.4,0.1-63.6,0c-1.8,0-2.2,0.5-2.2,2.2c0.1,15.5,0.1,31,0,46.5c0,1.8,0.5,2.2,2.2,2.2C416.8,330.3,427.4,330.4,438,330.4z M437.9,541.7c10.7,0,21.4,0,32.1,0c1.4,0,1.9-0.3,1.9-1.8c-0.1-15.7-0.1-31.4,0-47.2c0-1.6-0.5-1.9-2-1.9c-21.3,0-42.5,0-63.8,0c-1.6,0-2.1,0.4-2.1,2.1c0.1,15.6,0.1,31.2,0,46.7c0,1.8,0.6,2.1,2.3,2.1C416.7,541.7,427.3,541.7,437.9,541.7z M438,400.5c10.6,0,21.1,0,31.7,0c1.8,0,2.2-0.5,2.2-2.2c-0.1-15.5-0.1-31,0-46.5c0-1.6-0.3-2.1-2-2.1c-21.3,0.1-42.5,0.1-63.8,0c-1.6,0-2.1,0.4-2.1,2.1c0.1,15.5,0.1,31,0,46.5c0,1.9,0.7,2.3,2.4,2.3C416.9,400.5,427.4,400.5,438,400.5z M437.9,471.8c10.6,0,21.3,0,31.9,0c1.7,0,2.1-0.5,2.1-2.1c-0.1-15.5-0.1-31,0-46.5c0-1.7-0.3-2.3-2.2-2.2c-21.2,0.1-42.4,0.1-63.6,0c-1.8,0-2.2,0.5-2.2,2.2c0.1,15.5,0.1,31,0,46.5c0,1.7,0.4,2.1,2.1,2.1C416.6,471.7,427.3,471.8,437.9,471.8z"/>
    <path fill="#207145" d="M333,491c4.9,0,9.7-0.1,14.6-0.1c13.3,0,26.6,0,39.8,0c1.6,0,2.3,0.2,2.3,2.1c-0.1,15.6-0.1,31.1,0,46.7c0,1.8-0.6,2.1-2.3,2.1c-17.4-0.1-34.8,0-52.2,0c-0.9,0-1.8,0.1-2.7,0.1c0.3-1.4,0.4-2.8,0.4-4.2C333,522.1,333,506.5,333,491z"/>
    <path fill="#207145" d="M332.9,210.2c1.7,0,3.4-0.1,5.1-0.1c16.5,0,32.9,0,49.4,0c1.8,0,2.3,0.5,2.3,2.3c-0.1,15.5,0,31,0,46.5c0,1.1,0.2,2.1-1.6,2.1c-18.4-0.1-36.7-0.1-55.1-0.1C333,243.9,333,227,332.9,210.2z"/>
    <path fill="#1F7144" d="M333,420.8c13.5,0,27-0.1,40.5-0.1c4.7,0,9.5,0.1,14.2,0c1.5,0,2,0.3,2,1.9c-0.1,15.5,0,31,0,46.5c0,1.1,0.1,1.9-1.5,1.9c-18.2-0.1-36.5,0-54.7-0.1c-0.1,0-0.3-0.1-0.4-0.1C333,454.2,333,437.5,333,420.8z"/>
    <path fill="#207145" d="M438,260.8c-10.6,0-21.1-0.1-31.7,0.1c-2,0-2.4-0.6-2.4-2.5c0.1-15.4,0.1-30.7,0-46.1c0-1.8,0.5-2.3,2.3-2.3c21.1,0.1,42.2,0.1,63.4,0c1.7,0,2.3,0.3,2.3,2.2c-0.1,15.6-0.1,31.2,0,46.7c0,1.6-0.4,2-2,1.9C459.3,260.8,448.6,260.8,438,260.8z"/>
    <path fill="#207145" d="M438,330.4c-10.6,0-21.3,0-31.9,0c-1.7,0-2.2-0.4-2.2-2.2c0.1-15.5,0.1-31,0-46.5c0-1.7,0.4-2.2,2.2-2.2c21.2,0.1,42.4,0.1,63.6,0c1.8,0,2.2,0.6,2.2,2.2c-0.1,15.5-0.1,31,0,46.5c0,1.7-0.5,2.2-2.2,2.2C459.1,330.3,448.6,330.4,438,330.4z"/>
    <path fill="#207145" d="M437.9,541.7c-10.6,0-21.1,0-31.7,0c-1.6,0-2.3-0.3-2.3-2.1c0.1-15.6,0.1-31.2,0-46.7c0-1.7,0.5-2.1,2.1-2.1c21.3,0.1,42.5,0,63.8,0c1.5,0,2,0.3,2,1.9c-0.1,15.7-0.1,31.4,0,47.2c0,1.5-0.5,1.8-1.9,1.8C459.3,541.7,448.6,541.7,437.9,541.7z"/>
    <path fill="#1F7144" d="M438,400.5c-10.6,0-21.1,0-31.7,0c-1.7,0-2.4-0.3-2.4-2.3c0.1-15.5,0.1-31,0-46.5c0-1.7,0.5-2.1,2.1-2.1c21.3,0.1,42.5,0.1,63.8,0c1.7,0,2,0.5,2,2.1c-0.1,15.5-0.1,31,0,46.5c0,1.7-0.4,2.2-2.2,2.2C459.1,400.5,448.6,400.5,438,400.5z"/>
    <path fill="#1F7144" d="M437.9,471.8c-10.6,0-21.3,0-31.9,0c-1.7,0-2.1-0.4-2.1-2.1c0.1-15.5,0.1-31,0-46.5c0-1.7,0.4-2.2,2.2-2.2c21.2,0.1,42.4,0.1,63.6,0c1.8,0,2.2,0.6,2.2,2.2c-0.1,15.5-0.1,31,0,46.5c0,1.6-0.4,2.1-2.1,2.1C459.2,471.7,448.5,471.8,437.9,471.8z"/>
  </g>
</svg>
