<svg width="256" height="256" viewBox="0 0 256 256" fill="none" xmlns="http://www.w3.org/2000/svg">
  <rect width="256" height="256" rx="60" fill="#F4F2ED"/>
  <g transform="translate(14.95, -5) scale(0.35)">
    <path fill="#1A237E" d="M477,311.6c0,56.8-0.1,113.6,0.1,170.4c0,4.5-1.2,5.5-5.5,5.4c-14.2-0.3-28.3-0.3-42.5,0c-4.3,0.1-5.5-0.8-5.5-5.4c0.2-35.8,0.1-71.6,0.1-107.4c0-77.8,0.1-155.6-0.1-233.3c0-4.9,1.3-6,6-5.9c14.1,0.3,28.3,0.3,42.5,0c3.9-0.1,5,1,4.9,4.9C476.9,197.3,477,254.4,477,311.6z"/>
    <path fill="#1A237E" d="M221.1,429c0,56.8-0.1,113.6,0.1,170.4c0,4.5-1.1,5.5-5.5,5.4c-14.5-0.3-29-0.2-43.5,0c-3.5,0-4.5-1-4.5-4.5c0.1-114.4,0.1-228.8,0-343.2c0-3.7,1.2-4.3,4.5-4.3c14.7,0.2,29.3,0.2,44,0c3.9-0.1,4.9,1,4.9,4.9C221,314.8,221.1,371.9,221.1,429z"/>
    <path fill="#1A237E" d="M338.3,295.6c0-16.5,0.1-32.9-0.1-49.4c0-3.3,0.9-4.2,4.2-4.1c15.1,0.2,30.3,0.2,45.4,0c3.5,0,4,1.2,4,4.3c-0.1,32.6-0.1,65.2,0,97.8c0,3.8-1.2,4.8-4.9,4.8c-15-0.2-30-0.2-44.9,0c-3.1,0-3.9-0.8-3.8-3.9C338.4,328.5,338.3,312,338.3,295.6z"/>
    <path fill="#1A237E" d="M338.3,519.3c0-16.3,0.1-32.6-0.1-48.9c0-3.4,0.8-4.5,4.4-4.5c15,0.2,30,0.2,44.9,0c3.6,0,4.4,1,4.4,4.5c-0.1,32.4-0.1,64.9,0,97.3c0,4-1.1,5.2-5.1,5.1c-14.8-0.2-29.6-0.2-44.4,0c-3.2,0-4.2-0.7-4.2-4.1C338.4,552.2,338.3,535.8,338.3,519.3z"/>
    <path fill="#1A237E" d="M253.1,209.7c0-16.2,0.1-32.3-0.1-48.5c0-3.3,0.6-4.6,4.3-4.5c15,0.2,30,0.2,45,0c3.3,0,4.1,0.9,4.1,4.2c-0.1,32.8-0.1,65.6,0,98.4c0,3.6-1.3,4-4.3,4c-15-0.1-30-0.2-45,0c-3.4,0-4.1-1-4.1-4.2C253.2,242.7,253.1,226.2,253.1,209.7z"/>
    <path fill="#1A237E" d="M253.1,434c0-16.3,0.1-32.6-0.1-49c0-2.9,0.3-4.4,3.9-4.4c15.2,0.2,30.3,0.2,45.5,0c3,0,4,0.6,4,3.8c-0.1,33-0.1,66,0,98.9c0,3.2-1,3.8-4,3.8c-15.2-0.1-30.3-0.2-45.5,0c-3.6,0.1-3.9-1.4-3.9-4.4C253.1,466.6,253.1,450.3,253.1,434z"/>
    <path fill="#FABF2D" d="M306.3,321.9c0,7.7-0.1,15.3,0.1,23c0.1,3-0.8,4.1-3.9,4.1c-15.3-0.1-30.6-0.1-45.9,0c-2.6,0-3.4-0.8-3.4-3.4c0.1-15.6,0.1-31.3,0-46.9c0-2.8,1.1-3.3,3.6-3.3c15.3,0.1,30.6,0.1,45.9,0c3.3,0,3.8,1.4,3.8,4.2C306.2,306.9,306.3,314.4,306.3,321.9z"/>
    <path fill="#FE4080" d="M338.2,407.5c0-7.7,0.1-15.3-0.1-23c-0.1-2.8,0.8-3.8,3.7-3.7c15.5,0.1,31,0.1,46.4,0c2.5,0,3.5,0.8,3.5,3.4c-0.1,15.5-0.1,31,0,46.4c0,2.6-0.9,3.4-3.5,3.4c-15.6-0.1-31.3-0.1-46.9,0c-2.8,0-3.3-1.2-3.3-3.6C338.3,422.8,338.2,415.1,338.2,407.5z"/>
  </g>
</svg>
