<svg width="256" height="256" viewBox="0 0 256 256" fill="none" xmlns="http://www.w3.org/2000/svg">
  <rect width="256" height="256" rx="60" fill="#242938"/>
  <g transform="translate(-5.65, -38.5) scale(0.45)">
    <path fill="#4C6971" d="M104.9,370.9c0,73.6,0,147.3,0,220.9c0,8.7,1.4,10.1,10,10.1c123.1,0,246.2-0.1,369.3,0.1c8.2,0,11.7-3.2,11.6-12c-0.7-60.9,0.4-121.8-0.8-182.8c-1.1-56.6-0.3-113.3-0.2-169.9c0-3.7-1.1-6.7-2.9-9.8c-3.5-5.7-9.2-9.3-13.6-14.2c-14.5-16.1-28.7-32.4-44.2-47.6c-6.5-6.4-12.5-13.3-18.3-20.3c-4.2-5-8.8-7.8-16.1-7.8c-94.3,0.3-188.6,0.3-282.9,0.1c-8.6,0-12,2.9-12,12.1C104.9,223.6,104.9,297.3,104.9,370.9z"/>
    <path fill="black" d="M104.9,370.9c0-73.6,0-147.3,0-220.9c0-9.2,3.4-12.1,12-12.1c94.3,0.2,188.6,0.3,282.9-0.1c7.3,0,11.9,2.7,16.1,7.8c5.8,7,11.8,13.9,18.3,20.3c15.4,15.2,29.7,31.5,44.2,47.6c4.4,4.9,10.1,8.4,13.6,14.2c1.8,3.1,2.9,6.1,2.9,9.8c-0.1,56.6-0.9,113.3,0.2,169.9c1.2,60.9,0.1,121.8,0.8,182.8c0.1,8.8-3.4,12-11.6,12c-123.1-0.2-246.2-0.1-369.3-0.1c-8.6,0-10-1.4-10-10.1C104.9,518.2,104.9,444.5,104.9,370.9z"/>
    <path fill="#FEFEFE" d="M119.9,370c0,70.6,0,141.3-0.1,211.9c0,4.1,0.8,5.2,5.1,5.2c116.9-0.1,233.9-0.1,350.8,0c4,0,5.3-0.7,5.2-5c-0.8-56.7,0.3-113.4-0.9-170.2c-1.1-55.5-0.3-110.9-0.2-166.4c0-4.1-0.6-5.6-5.2-5.5c-24.2,0.3-48.3,0.1-72.5,0.1c-6.5,0-8.4-1.9-8.4-8.5c0-24.5-0.1-49,0.1-73.5c0-4.2-1-5.1-5.1-5.1c-88,0.1-175.9,0.1-263.9,0c-4.1,0-5.1,0.9-5.1,5.1C120,228.7,119.9,299.3,119.9,370z"/>
    <path fill="black" d="M321.8,306.7c0,7.8,0.1,15.7-0.1,23.5c-0.1,2.6,0.9,4.3,2.7,6c9.6,9.2,19.3,18.3,28.7,27.7c22.4,22.2,44.6,44.6,66.9,66.8c2.6,2.6,4,5.3,3.8,9.1c-0.7,17.6,1.6,35.1,1,52.7c-0.1,3.6-1.2,6.2-3.7,8.7c-14.2,14.1-28.3,28.2-42.4,42.4c-1.8,1.8-3.5,2.5-6.1,2.5c-53-0.1-105.9-0.1-158.9,0c-2.6,0-4.3-0.8-6-2.5c-9.1-9.2-18.3-18.4-27.6-27.5c-1.8-1.8-2.5-3.6-2.4-6.1c0.2-9,0.1-18,0-27c0-2.4,0.4-4.5,2-6.3c8.5-10,18.1-19,27.2-28.3c1.7-1.7,3.8-2.4,6.2-2.3c6,0.1,12-0.1,18,0.1c2.7,0.1,3.9-0.5,3.7-3.5c-0.3-3.3-0.4-6.7,0-10c0.9-6.7-1.2-12.1-5.8-16.9c-11-11.3-20.3-24-30.7-35.8c-11.8-13.3-22.5-27.7-34.7-40.7c-1.5-1.6-1.9-3.6-1.9-5.9c0.1-18.2,0.1-36.3,0-54.5c0-3,0.9-5.3,3-7.4c14.5-14.4,29-28.9,43.4-43.5c1.6-1.6,3.1-2,5.2-2c48.1,0,96.3,0.1,144.4,0c6,0,8.3,5,11.8,7.9c10.4,8.7,19.9,18.3,29.9,27.5c7.3,6.7,14.6,13.3,21.9,19.9c2.3,2.1,3.4,4.6,3.3,7.8c-0.2,4.3-0.4,8.7,0,13c0.4,4.2-0.8,7.7-3.4,10.7c-3.1,3.6-6.3,7.1-9.6,10.6c-1.7,1.9-3.9,2.7-6.6,2.6c-9.8-0.1-19.7,0.7-29.5-0.2c-11.4-1.1-22.8-0.5-34.3-0.8c-1.9,0-3-0.8-4.2-2c-4.8-4.7-9.5-9.5-13.2-15.2c-0.4-0.7-0.7-1.5-1-2.2C322.7,306,322.3,306.3,321.8,306.7z"/>
    <path fill="#FEFEFE" d="M408.8,162.5c19.7,21.2,39.4,40.9,57.9,62.5c-18.7,0-36.9,0-55.2,0c-1.7,0-2.7-0.2-2.7-2.4C408.8,203,408.8,183.3,408.8,162.5z"/>
    <path fill="#90C9EE" d="M173.1,311c-0.1-9.3,0-18.7-0.2-28c0-2.1,0.9-3.4,2.2-4.7c13.1-13.1,26.2-26.1,39.2-39.2c1.3-1.4,2.6-2.2,4.7-2.1c44.1,0.1,88.3,0.1,132.4,0.1c0.3,0,0.6,0.2,1.3,0.4c-9.7,12.4-19.4,24.6-28.7,37.1c-4.1,5.5-8,11.1-12.4,16.3c-1.1,1.2-0.7,2.5-0.7,3.8c-0.1,5.5-0.1,11-0.2,16.5C264.8,311,218.9,311,173.1,311z"/>
    <path fill="#90C9EE" d="M389.8,315c-13.9-1.1-27.8-1.2-41.7-1c-1.8,0-2.7-0.5-3.9-2c-5-6.1-10.2-12-15.7-17.7c-2.1-2.2-1.3-3.8,0-5.4c7.4-9.5,15-18.9,22.3-28.4c3.3-4.2,6.1-8.7,9.3-13.1c1.3-1.8,2.3-3.1,5-0.9c9.4,7.8,18.1,16.2,27.2,24.3c6.7,6,13.1,12.1,19.4,18.5c3.1,3.2,3.1,12,0,15.3c-0.9,1-2.1,1.8-2.7,2.9c-3,5.9-7.4,8.7-14.1,7.5C393.2,314.8,391.5,315,389.8,315z"/>
    <path fill="#48E2E4" d="M311,478c0,5,0.3,10-0.2,15c-0.6,4.9,1.5,8.5,4.5,11.9c8.8,9.8,17.6,19.5,26.4,29.4c-1.4,1.4-3,0.7-4.3,0.7c-38.9,0-77.9,0-116.8,0.1c-2.9,0-4.9-0.7-6.9-2.8c-7.3-7.5-14.7-14.9-22.2-22.2c-1.8-1.7-2.6-3.5-2.5-6.1c0.2-3.8,0.5-7.7,0-11.5c-1-6.6,1.9-11,7-14.5c1.3,0.3,2.7,1.1,3.8,0.8c8.5-2.1,17.1-0.5,25.6-0.6C253.8,477.7,282.4,478,311,478z"/>
    <path fill="#48E2E4" d="M413.6,477c1.8,9.7-1.1,17.1-8.8,23.9c-11.1,9.7-21.1,20.7-31.6,31.2c-4.9,4.9-13.5,3.9-18.2-1.1c-5.1-5.4-9.7-11.1-14.5-16.7c-5.7-6.6-11.6-12.9-17.4-19.5c-2.2-2.5-1.6-9,0.8-11.4c2.4-2.4,3.8-5.7,6.9-7.5c1.4,1.7,3.4,1.1,5.1,1.1c8.4-0.2,16.9-0.7,25.3-0.4c10.2,0.4,20.4-0.7,30.5,0.1C399,477.3,406.3,475.9,413.6,477z"/>
    <path fill="#83CEEC" d="M310.7,328c-1.9,9.2,3,15.4,9.3,21c-4.7,2.1-9.5,1.5-14.4,1.2c-6.5-0.5-13-0.1-19.6-0.1c0.1-2.8-1.1-4.1-4.1-4.1c-22,0.1-44,0.1-66.1,0c-3.1,0-4.2,1.2-4.1,4.1c-7.2,1-14.5-0.9-21.7,0.4c-5.2-6.4-11.3-12.1-16.1-18.8c-0.6-0.8-1.3-1.5-0.9-2.6c9.4-0.3,18.7-0.9,28.1-1c17.3-0.2,34.7,0,52,0C272.4,328,291.5,328,310.7,328z"/>
    <path fill="#5DDBE7" d="M246,437c0.2-4.7-1.4-9.5,1-14c9.1,0,18.1,0,27.2,0c14.5,0,28.9,0.1,43.4,0c25.5-0.2,50.9,0.9,76.4-1c4.6,4.6,9.3,9.3,13.9,13.9c-1.1,1.5-2.7,1.1-4.1,1.1c-15,0-30.1,0-45.1,0c-14.5,0-28.9,0-43.4,0c-3.3,0-6.8-0.4-9.9,0.4c-6.1,1.6-12-0.7-18.1,0c-5.8,0.7-11.8-0.9-17.5-0.2C261.7,438.1,253.9,438.4,246,437z"/>
    <path fill="#6ED5E9" d="M346.9,376c5.7,5.7,11.3,11.3,17,17c-8.5,1.6-17.2,1-25.8,1c-19.1,0.1-38.1,0.1-57.2-0.1c-3.5,0-6.8,1.2-10.3,1c-7.3-0.4-14.8-1.4-22-0.7c-7,0.7-13.9,0.5-20.8,0.8c-4.4-3.1-6.7-7.9-9.9-11.9c1.6-1.8,3.7-0.8,5.6-1.1c2.2-0.3,4.6,0.9,6.5-1.1c1.2,1,2.6,1.1,4.1,1.1c21.8,0,43.5-0.1,65.3,0.1c4.1,0,4.7-1.9,4.7-5.1c12.2,0,24.4,0,36.7,0C342.8,377,345,377.2,346.9,376z"/>
    <path fill="#8BCBED" d="M310.7,328c-19.2,0-38.3,0-57.5,0c-17.3,0-34.7-0.1-52,0c-9.4,0.1-18.7,0.6-28.1,1c0-6,0-12,0-18c45.9,0,91.7,0,137.6,0C310.7,316.7,310.7,322.4,310.7,328z"/>
    <path fill="#7CD0EB" d="M286,350c6.5,0,13.1-0.4,19.6,0.1c4.9,0.4,9.7,0.9,14.4-1.2c5.3,4.7,10.3,9.7,15,15c-2.7,0.8-5.5,1.1-8.3,1.1c-14.2-0.1-28.3-0.1-42.5,0c-3.1,0-6.4,1.2-9.3,0.6c-10.6-2-21.3,0.2-31.9,0.1c-7.3-0.1-14.8-0.4-22.2-0.2c-5.9,0.2-11.8-0.8-17.7,0.4c-4.4-5.2-9.5-9.7-13-15.6c7.2-1.3,14.5,0.6,21.7-0.4c0.2,2.6,1.8,3,4.1,3c22-0.1,44.1-0.1,66.1,0C284.2,353,285.8,352.6,286,350z"/>
    <path fill="#6AD7E9" d="M259.7,409c-6.6,0-13.3,0-19.9,0c-5-3.8-8.2-9.1-12-14c6.9-0.4,13.9-0.1,20.8-0.8c7.2-0.7,14.7,0.4,22,0.7c3.5,0.2,6.8-1.1,10.3-1c19.1,0.2,38.1,0.1,57.2,0.1c8.6,0,17.3,0.6,25.8-1c3.1-0.2,2.9,3.1,4.7,4.4c2.9,2.3,5.5,5,8.3,7.5c-0.8,1.3-2.5,1.8-3.4,1.6c-9-2.2-18,2.1-27.1-0.3c-3.2-0.8-6.8,1.3-10.3,0.8c-0.8-1.8-2.3-2-4.1-2c-22.7,0-45.4,0.1-68.1,0C260.8,404.9,259.6,406.2,259.7,409z"/>
    <path fill="#76D2EA" d="M203,366c5.9-1.2,11.9-0.2,17.7-0.4c7.4-0.2,14.8,0.2,22.2,0.2c10.6,0.1,21.2-2.1,31.9-0.1c3,0.6,6.2-0.6,9.3-0.6c14.2-0.1,28.3-0.1,42.5,0c2.9,0,5.6-0.2,8.3-1.1c4.3,3.7,8.3,7.7,12,12c-1.9,1.2-4.1,1.1-6.3,1.1c-12.2,0-24.4,0-36.7,0c-1.1-2.7-3.5-2-5.6-2c-21,0-41.9,0.1-62.9-0.1c-4.8-0.1-6.4,1.5-5.6,6c-1.9,2-4.4,0.8-6.5,1.1c-1.9,0.3-4-0.7-5.6,1.1C212.2,378,207.7,371.9,203,366z"/>
    <path fill="#50E0E5" d="M204.8,467.9c3.1-3,7-5.3,9.1-9.4c0.8-1.5,2.3-1.6,3.9-1.6c37.3,0,74.5,0,111.8,0.1c0.2,0,0.5,0.3,1.1,0.6c-4.1,3.3-6.3,8.3-10.7,11.4c-2.7-0.9-5.5-1.1-8.3-1.1c-4,0-8.2,1.5-11.8,0.7c-6.6-1.5-13,0.9-19.6-0.3c-7.3-1.3-14.9,0.2-22.4,0.5c-15.9,0.5-31.9,0.1-47.8,0.2C208.2,469,206.4,468.9,204.8,467.9z"/>
    <path fill="#4BE1E5" d="M204.8,467.9c1.6,1,3.4,1.1,5.3,1.1c15.9,0,31.9,0.3,47.8-0.2c7.5-0.2,15.1-1.7,22.4-0.5c6.7,1.2,13-1.2,19.6,0.3c3.5,0.8,7.8-0.7,11.8-0.7c2.8,0,5.6,0.2,8.3,1.1c-3,3-6,6-9,9c-28.6,0-57.2-0.3-85.7,0.1c-8.5,0.1-17.1-1.4-25.6,0.6c-1.1,0.3-2.5-0.5-3.8-0.8C198.8,474.6,201.8,471.3,204.8,467.9z"/>
    <path fill="#50E0E5" d="M355.7,454c5.7-2.3,11.6-0.1,17.5-0.6c13.1-1.1,26.3-0.4,39.5-0.4c0,4.3,0,8.7,0,13c-15.5,0-31.1,0-46.6,0C363.9,460.8,358.6,458.5,355.7,454z"/>
    <path fill="#4BE1E5" d="M366,466c15.5,0,31.1,0,46.6,0c0.9,3.6,1.7,7.2,1,11c-7.3-1.1-14.7,0.3-22-0.3c-10.1-0.8-20.3,0.3-30.5-0.1c-8.3-0.3-16.8,0.2-25.3,0.4c-1.7,0-3.7,0.7-5.1-1.1c1.4-2.8,3.6-3.2,6.7-3c7.1,0.4,14.2,0.1,21.3,0.1C365.3,473,365.6,472.7,366,466z"/>
    <path fill="black" d="M234.4,288c11.6,0,23.3,0,34.9,0c2.6,0,4.6,0.1,4.6,3.5c0,3.5-2.1,3.5-4.6,3.5c-23.6,0-47.2,0-70.9,0c-2.6,0-4.6-0.1-4.6-3.5c0-3.5,2.1-3.5,4.6-3.5C210.4,288.1,222.4,288,234.4,288z"/>
    <path fill="black" d="M247.8,267c-11.3,0-22.6,0-33.9,0c-2.6,0-5.1,0.3-5-3.6c0.1-3.6,2.3-3.4,4.7-3.4c23,0,45.9,0,68.9,0c2.6,0,4.5,0.2,4.5,3.6c0,3.6-2.3,3.4-4.7,3.4C270.7,267,259.2,267,247.8,267z"/>
    <path fill="black" d="M286,350c-0.2,2.6-1.8,3-4.1,3c-22-0.1-44.1-0.1-66.1,0c-2.3,0-3.9-0.4-4.1-3c-0.1-2.8,1.1-4.1,4.1-4.1c22,0.1,44,0.1,66.1,0C285,345.9,286.1,347.2,286,350z"/>
    <path fill="black" d="M229.9,380.9c-0.8-4.5,0.8-6.1,5.6-6c21,0.3,41.9,0.1,62.9,0.1c2.1,0,4.4-0.7,5.6,2c0.1,3.2-0.6,5.1-4.7,5.1c-21.8-0.2-43.5-0.1-65.3-0.1C232.5,382,231.1,381.9,229.9,380.9z"/>
    <path fill="black" d="M259.7,409c-0.1-2.8,1.1-4.1,4.1-4.1c22.7,0.1,45.4,0.1,68.1,0c1.8,0,3.3,0.2,4.1,2c0.2,3.7-1.1,5.1-5.2,5.1c-22-0.2-44-0.1-66-0.1C262.5,412,260,412.4,259.7,409z"/>
    <path fill="black" d="M233.2,324c-11.3,0-22.6,0-33.9,0c-2.7,0-4.5-0.3-4.4-3.7c0.1-3.1,1.9-3.3,4.3-3.3c22.8,0,45.6,0,68.4,0c2.7,0,4.5,0.3,4.4,3.7c-0.1,3.6-2.4,3.3-4.8,3.3C255.8,324,244.5,324,233.2,324z"/>
  </g>
</svg>
